<mxfile host="app.diagrams.net" agent="Mozilla/5.0 (Windows NT 10.0; Win64; x64) AppleWebKit/537.36 (KHTML, like Gecko) Chrome/132.0.0.0 Safari/537.36" version="26.0.11">
  <diagram name="Page-1" id="ys9YcWTLfOtAQzGcZE_G">
    <mxGraphModel dx="2284" dy="1886" grid="1" gridSize="10" guides="1" tooltips="1" connect="1" arrows="1" fold="1" page="1" pageScale="1" pageWidth="850" pageHeight="1100" math="0" shadow="0">
      <root>
        <mxCell id="0" />
        <mxCell id="1" parent="0" />
        <mxCell id="EVDRqhJisSuNfxdYntiX-2" value="Product" style="whiteSpace=wrap;html=1;align=center;" vertex="1" parent="1">
          <mxGeometry x="375" y="190" width="100" height="40" as="geometry" />
        </mxCell>
        <mxCell id="EVDRqhJisSuNfxdYntiX-3" value="&lt;u&gt;Id&lt;/u&gt;" style="ellipse;whiteSpace=wrap;html=1;align=center;" vertex="1" parent="1">
          <mxGeometry x="290" y="70" width="100" height="40" as="geometry" />
        </mxCell>
        <mxCell id="EVDRqhJisSuNfxdYntiX-4" value="Name" style="ellipse;whiteSpace=wrap;html=1;align=center;" vertex="1" parent="1">
          <mxGeometry x="380" y="20" width="100" height="40" as="geometry" />
        </mxCell>
        <mxCell id="EVDRqhJisSuNfxdYntiX-5" value="Category" style="ellipse;whiteSpace=wrap;html=1;align=center;" vertex="1" parent="1">
          <mxGeometry x="475" y="63" width="100" height="40" as="geometry" />
        </mxCell>
        <mxCell id="EVDRqhJisSuNfxdYntiX-6" value="Price" style="ellipse;whiteSpace=wrap;html=1;align=center;" vertex="1" parent="1">
          <mxGeometry x="555" y="136" width="100" height="40" as="geometry" />
        </mxCell>
        <mxCell id="EVDRqhJisSuNfxdYntiX-7" value="CategoryId" style="ellipse;whiteSpace=wrap;html=1;align=center;" vertex="1" parent="1">
          <mxGeometry x="459" y="-38" width="100" height="40" as="geometry" />
        </mxCell>
        <mxCell id="EVDRqhJisSuNfxdYntiX-8" value="Category_name" style="ellipse;whiteSpace=wrap;html=1;align=center;" vertex="1" parent="1">
          <mxGeometry x="601" y="-15" width="100" height="40" as="geometry" />
        </mxCell>
        <mxCell id="EVDRqhJisSuNfxdYntiX-9" value="User" style="whiteSpace=wrap;html=1;align=center;" vertex="1" parent="1">
          <mxGeometry x="-50" y="43" width="100" height="40" as="geometry" />
        </mxCell>
        <mxCell id="EVDRqhJisSuNfxdYntiX-11" value="&lt;u&gt;UserId&lt;/u&gt;" style="ellipse;whiteSpace=wrap;html=1;align=center;" vertex="1" parent="1">
          <mxGeometry x="-240" y="3" width="100" height="40" as="geometry" />
        </mxCell>
        <mxCell id="EVDRqhJisSuNfxdYntiX-12" value="username" style="ellipse;whiteSpace=wrap;html=1;align=center;" vertex="1" parent="1">
          <mxGeometry x="-200" y="-57" width="100" height="40" as="geometry" />
        </mxCell>
        <mxCell id="EVDRqhJisSuNfxdYntiX-13" value="email" style="ellipse;whiteSpace=wrap;html=1;align=center;" vertex="1" parent="1">
          <mxGeometry x="-140" y="-107" width="95" height="30" as="geometry" />
        </mxCell>
        <mxCell id="EVDRqhJisSuNfxdYntiX-14" value="password" style="ellipse;whiteSpace=wrap;html=1;align=center;" vertex="1" parent="1">
          <mxGeometry x="-50" y="-55" width="100" height="36" as="geometry" />
        </mxCell>
        <mxCell id="EVDRqhJisSuNfxdYntiX-15" value="Admin_user" style="whiteSpace=wrap;html=1;align=center;" vertex="1" parent="1">
          <mxGeometry x="-130" y="134" width="100" height="40" as="geometry" />
        </mxCell>
        <mxCell id="EVDRqhJisSuNfxdYntiX-16" value="Customer" style="whiteSpace=wrap;html=1;align=center;" vertex="1" parent="1">
          <mxGeometry x="43" y="136" width="100" height="40" as="geometry" />
        </mxCell>
        <mxCell id="EVDRqhJisSuNfxdYntiX-17" value="d" style="ellipse;whiteSpace=wrap;html=1;aspect=fixed;" vertex="1" parent="1">
          <mxGeometry x="-15" y="93" width="30" height="30" as="geometry" />
        </mxCell>
        <mxCell id="EVDRqhJisSuNfxdYntiX-18" value="" style="endArrow=none;html=1;rounded=0;exitX=1;exitY=1;exitDx=0;exitDy=0;entryX=0;entryY=0.5;entryDx=0;entryDy=0;" edge="1" parent="1" source="EVDRqhJisSuNfxdYntiX-3" target="EVDRqhJisSuNfxdYntiX-2">
          <mxGeometry relative="1" as="geometry">
            <mxPoint x="340" y="400" as="sourcePoint" />
            <mxPoint x="500" y="400" as="targetPoint" />
          </mxGeometry>
        </mxCell>
        <mxCell id="EVDRqhJisSuNfxdYntiX-19" value="" style="endArrow=none;html=1;rounded=0;exitX=0.5;exitY=1;exitDx=0;exitDy=0;entryX=0.25;entryY=0;entryDx=0;entryDy=0;" edge="1" parent="1" source="EVDRqhJisSuNfxdYntiX-4" target="EVDRqhJisSuNfxdYntiX-2">
          <mxGeometry relative="1" as="geometry">
            <mxPoint x="325" y="174" as="sourcePoint" />
            <mxPoint x="385" y="220" as="targetPoint" />
          </mxGeometry>
        </mxCell>
        <mxCell id="EVDRqhJisSuNfxdYntiX-20" value="" style="endArrow=none;html=1;rounded=0;exitX=0;exitY=1;exitDx=0;exitDy=0;entryX=0.5;entryY=0;entryDx=0;entryDy=0;" edge="1" parent="1" source="EVDRqhJisSuNfxdYntiX-5" target="EVDRqhJisSuNfxdYntiX-2">
          <mxGeometry relative="1" as="geometry">
            <mxPoint x="402" y="125" as="sourcePoint" />
            <mxPoint x="410" y="200" as="targetPoint" />
          </mxGeometry>
        </mxCell>
        <mxCell id="EVDRqhJisSuNfxdYntiX-21" value="" style="endArrow=none;html=1;rounded=0;exitX=0;exitY=0.5;exitDx=0;exitDy=0;entryX=1;entryY=0;entryDx=0;entryDy=0;" edge="1" parent="1" source="EVDRqhJisSuNfxdYntiX-6" target="EVDRqhJisSuNfxdYntiX-2">
          <mxGeometry relative="1" as="geometry">
            <mxPoint x="500" y="107" as="sourcePoint" />
            <mxPoint x="435" y="200" as="targetPoint" />
          </mxGeometry>
        </mxCell>
        <mxCell id="EVDRqhJisSuNfxdYntiX-22" value="" style="endArrow=none;html=1;rounded=0;exitX=0.5;exitY=1;exitDx=0;exitDy=0;entryX=0.5;entryY=0;entryDx=0;entryDy=0;" edge="1" parent="1" source="EVDRqhJisSuNfxdYntiX-7" target="EVDRqhJisSuNfxdYntiX-5">
          <mxGeometry relative="1" as="geometry">
            <mxPoint x="565" y="166" as="sourcePoint" />
            <mxPoint x="485" y="200" as="targetPoint" />
          </mxGeometry>
        </mxCell>
        <mxCell id="EVDRqhJisSuNfxdYntiX-23" value="" style="endArrow=none;html=1;rounded=0;exitX=0;exitY=1;exitDx=0;exitDy=0;entryX=1;entryY=0;entryDx=0;entryDy=0;" edge="1" parent="1" source="EVDRqhJisSuNfxdYntiX-8" target="EVDRqhJisSuNfxdYntiX-5">
          <mxGeometry relative="1" as="geometry">
            <mxPoint x="519" y="12" as="sourcePoint" />
            <mxPoint x="535" y="73" as="targetPoint" />
          </mxGeometry>
        </mxCell>
        <mxCell id="EVDRqhJisSuNfxdYntiX-24" value="" style="endArrow=none;html=1;rounded=0;exitX=0.5;exitY=1;exitDx=0;exitDy=0;entryX=0.25;entryY=0;entryDx=0;entryDy=0;" edge="1" parent="1" source="EVDRqhJisSuNfxdYntiX-13" target="EVDRqhJisSuNfxdYntiX-9">
          <mxGeometry relative="1" as="geometry">
            <mxPoint x="-60" y="-57" as="sourcePoint" />
            <mxPoint x="250" y="-97" as="targetPoint" />
          </mxGeometry>
        </mxCell>
        <mxCell id="EVDRqhJisSuNfxdYntiX-25" value="" style="endArrow=none;html=1;rounded=0;exitX=0.5;exitY=1;exitDx=0;exitDy=0;entryX=0.5;entryY=0;entryDx=0;entryDy=0;" edge="1" parent="1" source="EVDRqhJisSuNfxdYntiX-14" target="EVDRqhJisSuNfxdYntiX-9">
          <mxGeometry relative="1" as="geometry">
            <mxPoint x="-82" y="-67" as="sourcePoint" />
            <mxPoint x="-15" y="53" as="targetPoint" />
          </mxGeometry>
        </mxCell>
        <mxCell id="EVDRqhJisSuNfxdYntiX-26" value="" style="endArrow=none;html=1;rounded=0;exitX=1;exitY=1;exitDx=0;exitDy=0;entryX=0;entryY=0;entryDx=0;entryDy=0;" edge="1" parent="1" source="EVDRqhJisSuNfxdYntiX-12" target="EVDRqhJisSuNfxdYntiX-9">
          <mxGeometry relative="1" as="geometry">
            <mxPoint x="10" y="-9" as="sourcePoint" />
            <mxPoint x="10" y="53" as="targetPoint" />
          </mxGeometry>
        </mxCell>
        <mxCell id="EVDRqhJisSuNfxdYntiX-27" value="" style="endArrow=none;html=1;rounded=0;exitX=1;exitY=0.5;exitDx=0;exitDy=0;entryX=0;entryY=0.5;entryDx=0;entryDy=0;" edge="1" parent="1" source="EVDRqhJisSuNfxdYntiX-11" target="EVDRqhJisSuNfxdYntiX-9">
          <mxGeometry relative="1" as="geometry">
            <mxPoint x="-105" y="-13" as="sourcePoint" />
            <mxPoint x="-40" y="53" as="targetPoint" />
          </mxGeometry>
        </mxCell>
        <mxCell id="EVDRqhJisSuNfxdYntiX-28" value="" style="endArrow=none;html=1;rounded=0;exitX=0.5;exitY=0;exitDx=0;exitDy=0;entryX=0.5;entryY=1;entryDx=0;entryDy=0;" edge="1" parent="1" source="EVDRqhJisSuNfxdYntiX-17" target="EVDRqhJisSuNfxdYntiX-9">
          <mxGeometry relative="1" as="geometry">
            <mxPoint x="-95" y="-3" as="sourcePoint" />
            <mxPoint x="-30" y="63" as="targetPoint" />
          </mxGeometry>
        </mxCell>
        <mxCell id="EVDRqhJisSuNfxdYntiX-29" value="" style="endArrow=none;html=1;rounded=0;exitX=1;exitY=0;exitDx=0;exitDy=0;entryX=0;entryY=1;entryDx=0;entryDy=0;" edge="1" parent="1" source="EVDRqhJisSuNfxdYntiX-15" target="EVDRqhJisSuNfxdYntiX-17">
          <mxGeometry relative="1" as="geometry">
            <mxPoint x="-85" y="7" as="sourcePoint" />
            <mxPoint x="-20" y="73" as="targetPoint" />
          </mxGeometry>
        </mxCell>
        <mxCell id="EVDRqhJisSuNfxdYntiX-30" value="" style="endArrow=none;html=1;rounded=0;exitX=0;exitY=0;exitDx=0;exitDy=0;entryX=1;entryY=1;entryDx=0;entryDy=0;" edge="1" parent="1" source="EVDRqhJisSuNfxdYntiX-16" target="EVDRqhJisSuNfxdYntiX-17">
          <mxGeometry relative="1" as="geometry">
            <mxPoint x="-75" y="17" as="sourcePoint" />
            <mxPoint x="-10" y="83" as="targetPoint" />
          </mxGeometry>
        </mxCell>
        <mxCell id="EVDRqhJisSuNfxdYntiX-31" value="Creates" style="shape=rhombus;perimeter=rhombusPerimeter;whiteSpace=wrap;html=1;align=center;" vertex="1" parent="1">
          <mxGeometry x="120" y="290" width="120" height="60" as="geometry" />
        </mxCell>
        <mxCell id="EVDRqhJisSuNfxdYntiX-32" value="N" style="text;strokeColor=none;fillColor=none;spacingLeft=4;spacingRight=4;overflow=hidden;rotatable=0;points=[[0,0.5],[1,0.5]];portConstraint=eastwest;fontSize=12;whiteSpace=wrap;html=1;" vertex="1" parent="1">
          <mxGeometry x="230" y="280" width="40" height="30" as="geometry" />
        </mxCell>
        <mxCell id="EVDRqhJisSuNfxdYntiX-33" value="" style="endArrow=none;html=1;rounded=0;exitX=1;exitY=0.5;exitDx=0;exitDy=0;entryX=0;entryY=1;entryDx=0;entryDy=0;" edge="1" parent="1" source="EVDRqhJisSuNfxdYntiX-31" target="EVDRqhJisSuNfxdYntiX-2">
          <mxGeometry relative="1" as="geometry">
            <mxPoint x="340" y="200" as="sourcePoint" />
            <mxPoint x="500" y="200" as="targetPoint" />
          </mxGeometry>
        </mxCell>
        <mxCell id="EVDRqhJisSuNfxdYntiX-34" value="" style="endArrow=none;html=1;rounded=0;exitX=0;exitY=0.5;exitDx=0;exitDy=0;entryX=0.5;entryY=1;entryDx=0;entryDy=0;" edge="1" parent="1" source="EVDRqhJisSuNfxdYntiX-31" target="EVDRqhJisSuNfxdYntiX-15">
          <mxGeometry relative="1" as="geometry">
            <mxPoint x="250" y="330" as="sourcePoint" />
            <mxPoint x="385" y="240" as="targetPoint" />
          </mxGeometry>
        </mxCell>
        <mxCell id="EVDRqhJisSuNfxdYntiX-35" value="1" style="text;strokeColor=none;fillColor=none;spacingLeft=4;spacingRight=4;overflow=hidden;rotatable=0;points=[[0,0.5],[1,0.5]];portConstraint=eastwest;fontSize=12;whiteSpace=wrap;html=1;" vertex="1" parent="1">
          <mxGeometry x="110" y="280" width="40" height="30" as="geometry" />
        </mxCell>
        <mxCell id="EVDRqhJisSuNfxdYntiX-37" value="Shopping_cart" style="shape=ext;margin=3;double=1;whiteSpace=wrap;html=1;align=center;" vertex="1" parent="1">
          <mxGeometry x="130" y="-220" width="100" height="40" as="geometry" />
        </mxCell>
        <mxCell id="EVDRqhJisSuNfxdYntiX-38" value="Relationship" style="shape=rhombus;double=1;perimeter=rhombusPerimeter;whiteSpace=wrap;html=1;align=center;" vertex="1" parent="1">
          <mxGeometry x="130" y="-79" width="120" height="60" as="geometry" />
        </mxCell>
        <mxCell id="EVDRqhJisSuNfxdYntiX-39" value="" style="endArrow=none;html=1;rounded=0;exitX=1;exitY=0;exitDx=0;exitDy=0;entryX=0;entryY=0.5;entryDx=0;entryDy=0;" edge="1" parent="1" source="EVDRqhJisSuNfxdYntiX-9" target="EVDRqhJisSuNfxdYntiX-38">
          <mxGeometry relative="1" as="geometry">
            <mxPoint x="340" as="sourcePoint" />
            <mxPoint x="500" as="targetPoint" />
          </mxGeometry>
        </mxCell>
        <mxCell id="EVDRqhJisSuNfxdYntiX-40" value="" style="endArrow=none;html=1;rounded=0;exitX=0;exitY=0.5;exitDx=0;exitDy=0;entryX=0.5;entryY=1;entryDx=0;entryDy=0;" edge="1" parent="1" source="EVDRqhJisSuNfxdYntiX-2" target="EVDRqhJisSuNfxdYntiX-38">
          <mxGeometry relative="1" as="geometry">
            <mxPoint x="60" y="53" as="sourcePoint" />
            <mxPoint x="140" y="-39" as="targetPoint" />
          </mxGeometry>
        </mxCell>
        <mxCell id="EVDRqhJisSuNfxdYntiX-41" value="" style="endArrow=none;html=1;rounded=0;exitX=0.5;exitY=0;exitDx=0;exitDy=0;entryX=0.5;entryY=1;entryDx=0;entryDy=0;" edge="1" parent="1" source="EVDRqhJisSuNfxdYntiX-38" target="EVDRqhJisSuNfxdYntiX-37">
          <mxGeometry relative="1" as="geometry">
            <mxPoint x="385" y="220" as="sourcePoint" />
            <mxPoint x="200" y="-9" as="targetPoint" />
          </mxGeometry>
        </mxCell>
        <mxCell id="EVDRqhJisSuNfxdYntiX-42" value="Products" style="ellipse;shape=doubleEllipse;margin=3;whiteSpace=wrap;html=1;align=center;" vertex="1" parent="1">
          <mxGeometry x="190" y="-330" width="100" height="40" as="geometry" />
        </mxCell>
        <mxCell id="EVDRqhJisSuNfxdYntiX-43" value="" style="endArrow=none;html=1;rounded=0;exitX=0.5;exitY=0;exitDx=0;exitDy=0;entryX=0.5;entryY=1;entryDx=0;entryDy=0;" edge="1" parent="1" source="EVDRqhJisSuNfxdYntiX-37" target="EVDRqhJisSuNfxdYntiX-42">
          <mxGeometry relative="1" as="geometry">
            <mxPoint x="200" y="-69" as="sourcePoint" />
            <mxPoint x="190" y="-170" as="targetPoint" />
          </mxGeometry>
        </mxCell>
        <mxCell id="EVDRqhJisSuNfxdYntiX-44" value="Image" style="ellipse;whiteSpace=wrap;html=1;align=center;" vertex="1" parent="1">
          <mxGeometry x="564" y="222" width="100" height="40" as="geometry" />
        </mxCell>
        <mxCell id="EVDRqhJisSuNfxdYntiX-45" value="" style="endArrow=none;html=1;rounded=0;exitX=0;exitY=0.5;exitDx=0;exitDy=0;entryX=1;entryY=0.5;entryDx=0;entryDy=0;" edge="1" source="EVDRqhJisSuNfxdYntiX-44" parent="1" target="EVDRqhJisSuNfxdYntiX-2">
          <mxGeometry relative="1" as="geometry">
            <mxPoint x="509" y="193" as="sourcePoint" />
            <mxPoint x="484" y="276" as="targetPoint" />
          </mxGeometry>
        </mxCell>
        <mxCell id="EVDRqhJisSuNfxdYntiX-46" value="N" style="text;strokeColor=none;fillColor=none;spacingLeft=4;spacingRight=4;overflow=hidden;rotatable=0;points=[[0,0.5],[1,0.5]];portConstraint=eastwest;fontSize=12;whiteSpace=wrap;html=1;" vertex="1" parent="1">
          <mxGeometry x="210" y="-27" width="40" height="30" as="geometry" />
        </mxCell>
        <mxCell id="EVDRqhJisSuNfxdYntiX-47" value="M" style="text;strokeColor=none;fillColor=none;spacingLeft=4;spacingRight=4;overflow=hidden;rotatable=0;points=[[0,0.5],[1,0.5]];portConstraint=eastwest;fontSize=12;whiteSpace=wrap;html=1;" vertex="1" parent="1">
          <mxGeometry x="190" y="-107" width="40" height="30" as="geometry" />
        </mxCell>
        <mxCell id="EVDRqhJisSuNfxdYntiX-48" value="N" style="text;strokeColor=none;fillColor=none;spacingLeft=4;spacingRight=4;overflow=hidden;rotatable=0;points=[[0,0.5],[1,0.5]];portConstraint=eastwest;fontSize=12;whiteSpace=wrap;html=1;" vertex="1" parent="1">
          <mxGeometry x="170" y="-5" width="40" height="30" as="geometry" />
        </mxCell>
        <mxCell id="EVDRqhJisSuNfxdYntiX-49" value="M" style="text;strokeColor=none;fillColor=none;spacingLeft=4;spacingRight=4;overflow=hidden;rotatable=0;points=[[0,0.5],[1,0.5]];portConstraint=eastwest;fontSize=12;whiteSpace=wrap;html=1;" vertex="1" parent="1">
          <mxGeometry x="120" y="-45" width="40" height="30" as="geometry" />
        </mxCell>
        <mxCell id="EVDRqhJisSuNfxdYntiX-50" value="1" style="text;strokeColor=none;fillColor=none;spacingLeft=4;spacingRight=4;overflow=hidden;rotatable=0;points=[[0,0.5],[1,0.5]];portConstraint=eastwest;fontSize=12;whiteSpace=wrap;html=1;" vertex="1" parent="1">
          <mxGeometry x="160" y="-107" width="40" height="30" as="geometry" />
        </mxCell>
        <mxCell id="EVDRqhJisSuNfxdYntiX-51" value="1" style="text;strokeColor=none;fillColor=none;spacingLeft=4;spacingRight=4;overflow=hidden;rotatable=0;points=[[0,0.5],[1,0.5]];portConstraint=eastwest;fontSize=12;whiteSpace=wrap;html=1;" vertex="1" parent="1">
          <mxGeometry x="103" y="-68" width="40" height="30" as="geometry" />
        </mxCell>
        <mxCell id="EVDRqhJisSuNfxdYntiX-52" value="Description" style="ellipse;whiteSpace=wrap;html=1;align=center;" vertex="1" parent="1">
          <mxGeometry x="420" y="280" width="100" height="40" as="geometry" />
        </mxCell>
        <mxCell id="EVDRqhJisSuNfxdYntiX-53" value="" style="endArrow=none;html=1;rounded=0;exitX=0.5;exitY=0;exitDx=0;exitDy=0;entryX=0.5;entryY=1;entryDx=0;entryDy=0;" edge="1" parent="1" source="EVDRqhJisSuNfxdYntiX-52" target="EVDRqhJisSuNfxdYntiX-2">
          <mxGeometry relative="1" as="geometry">
            <mxPoint x="574" y="252" as="sourcePoint" />
            <mxPoint x="485" y="220" as="targetPoint" />
          </mxGeometry>
        </mxCell>
        <mxCell id="EVDRqhJisSuNfxdYntiX-54" value="&lt;div&gt;&lt;div&gt;-- Users&lt;/div&gt;&lt;div&gt;User (&lt;u&gt;userId&lt;/u&gt;, username, email, password, role) -- role can be &#39;admin&#39; or &#39;customer&#39;&lt;/div&gt;&lt;div&gt;&lt;br&gt;&lt;/div&gt;&lt;div&gt;-- Categories&lt;/div&gt;&lt;div&gt;Category (&lt;u&gt;categoryId&lt;/u&gt;, category_name)&lt;/div&gt;&lt;div&gt;&lt;br&gt;&lt;/div&gt;&lt;div&gt;-- Products&lt;/div&gt;&lt;div&gt;Product (&lt;u&gt;id&lt;/u&gt;, name, categoryId*, price, image_url, description, created_by*) -- FK to User (Admin)&lt;/div&gt;&lt;div&gt;&lt;br&gt;&lt;/div&gt;&lt;div&gt;-- Carts&lt;/div&gt;&lt;div&gt;Cart (&lt;u&gt;cart_id&lt;/u&gt;, user_id*) -- One cart per user&lt;/div&gt;&lt;div&gt;&lt;br&gt;&lt;/div&gt;&lt;div&gt;-- Cart Items (to store multiple items in a cart)&lt;/div&gt;&lt;div&gt;CartItem (&lt;u&gt;cart_id&lt;/u&gt;*, &lt;u&gt;product_id&lt;/u&gt;*, quantity)&lt;/div&gt;&lt;div&gt;&lt;br&gt;&lt;/div&gt;&lt;div&gt;-- Orders (to handle purchases)&lt;/div&gt;&lt;div&gt;Order (&lt;u&gt;order_id&lt;/u&gt;, &lt;u&gt;user_id&lt;/u&gt;*, total_price, status, created_at)&lt;/div&gt;&lt;div&gt;&lt;br&gt;&lt;/div&gt;&lt;div&gt;-- Order Items (tracks purchased products)&lt;/div&gt;&lt;div&gt;OrderItem (&lt;u&gt;order_id&lt;/u&gt;*, &lt;u&gt;product_id&lt;/u&gt;*, quantity, price_at_purchase)&lt;/div&gt;&lt;div&gt;&lt;br&gt;&lt;/div&gt;&lt;div&gt;-- Admin Log (optional)&lt;/div&gt;&lt;div&gt;AdminAction (action_id, user_id*, product_id*, action_type, timestamp)&lt;/div&gt;&lt;/div&gt;&lt;div&gt;&lt;br&gt;&lt;/div&gt;" style="text;strokeColor=none;fillColor=none;spacingLeft=4;spacingRight=4;overflow=hidden;rotatable=0;points=[[0,0.5],[1,0.5]];portConstraint=eastwest;fontSize=12;whiteSpace=wrap;html=1;" vertex="1" parent="1">
          <mxGeometry x="140" y="400" width="640" height="430" as="geometry" />
        </mxCell>
      </root>
    </mxGraphModel>
  </diagram>
</mxfile>
